# xmcd
#
# Track frame offsets: 
#        150
#        15387
#        36252
#        55605
#        76067
#        100440
#        124500
#        141867
#        158950
#        178357
#
# Disc length: 2693 seconds
#
# Revision: 3
# Processed by: cddbd v1.5.1PL0 Copyright (c) Steve Scherf et al.
# Submitted via: ExactAudioCopy v0.95a5
#
DISCID=7b0a830a
DTITLE=Riccardo Cocciante - Quando Si Vuole Bene (In Concerto 1° Tempo
DTITLE=)
DYEAR=1986
DGENRE=Easy Listening
TTITLE0=Tu Sei Il Mio Amico Carissimo
TTITLE1=Un Buco Nel Cuore
TTITLE2=In Bicicletta
TTITLE3=Sulla Terra Io E Lei
TTITLE4=Primavera
TTITLE5=Cervo A Primavera
TTITLE6=E' Passata Una Nuvola
TTITLE7=Il Mare Dei Papaveri
TTITLE8=Celeste Nostalgia
TTITLE9=Parole Sante, Zia Lucia
EXTD=
EXTT0=
EXTT1=
EXTT2=
EXTT3=
EXTT4=
EXTT5=
EXTT6=
EXTT7=
EXTT8=
EXTT9=
PLAYORDER=
